<svg width="201" height="138" viewBox="0 0 201 138" fill="none" xmlns="http://www.w3.org/2000/svg">
<path d="M153.867 61.1199L164.049 82.7563L174.776 61.1199H199.685L180.958 96.029L200.594 130.938H175.867L164.049 108.756L152.594 130.938H127.504L147.322 96.029L128.776 61.1199H153.867Z" fill="#FAF6E2"/>
<mask id="path-2-outside-1_37_2" maskUnits="userSpaceOnUse" x="-0.984906" y="32.9258" width="52.5907" height="100.306" fill="black">
<rect fill="white" x="-0.984906" y="32.9258" width="52.5907" height="100.306"/>
<path d="M45.9142 62.1383L46.011 78.5017L1.1027 78.7674L1.00589 62.404L45.9142 62.1383ZM10.7824 132.166L10.3484 58.8032C10.3165 53.4094 11.3052 48.9338 13.3145 45.3764C15.3236 41.7886 18.1259 39.1054 21.7215 37.3265C25.3169 35.5173 29.4783 34.5987 34.2054 34.5707C37.2963 34.5525 40.2068 34.7777 42.9369 35.2464C45.6971 35.6846 47.7449 36.0816 49.0804 36.4373L45.6313 52.7307C44.8115 52.4629 43.8102 52.2415 42.6273 52.0667C41.4747 51.8917 40.3833 51.8072 39.353 51.8133C36.747 51.8287 34.9625 52.4151 33.9997 53.5723C33.0368 54.7295 32.5613 56.3081 32.5731 58.3081L33.0093 132.034L10.7824 132.166Z"/>
</mask>
<path d="M45.9142 62.1383L46.011 78.5017L1.1027 78.7674L1.00589 62.404L45.9142 62.1383ZM10.7824 132.166L10.3484 58.8032C10.3165 53.4094 11.3052 48.9338 13.3145 45.3764C15.3236 41.7886 18.1259 39.1054 21.7215 37.3265C25.3169 35.5173 29.4783 34.5987 34.2054 34.5707C37.2963 34.5525 40.2068 34.7777 42.9369 35.2464C45.6971 35.6846 47.7449 36.0816 49.0804 36.4373L45.6313 52.7307C44.8115 52.4629 43.8102 52.2415 42.6273 52.0667C41.4747 51.8917 40.3833 51.8072 39.353 51.8133C36.747 51.8287 34.9625 52.4151 33.9997 53.5723C33.0368 54.7295 32.5613 56.3081 32.5731 58.3081L33.0093 132.034L10.7824 132.166Z" fill="#FAF6E2"/>
<path d="M45.9142 62.1383L46.9142 62.1324L46.9083 61.1324L45.9083 61.1383L45.9142 62.1383ZM46.011 78.5017L46.0169 79.5017L47.0169 79.4957L47.011 78.4958L46.011 78.5017ZM1.1027 78.7674L0.10272 78.7733L0.108637 79.7733L1.10862 79.7674L1.1027 78.7674ZM1.00589 62.404L0.999975 61.404L-7.47944e-06 61.4099L0.00590878 62.4099L1.00589 62.404ZM10.7824 132.166L9.78244 132.171L9.78836 133.171L10.7883 133.166L10.7824 132.166ZM13.3145 45.3764L14.1852 45.8682L14.187 45.865L13.3145 45.3764ZM21.7215 37.3265L22.165 38.2228L22.171 38.2198L21.7215 37.3265ZM42.9369 35.2464L42.7676 36.232L42.7801 36.234L42.9369 35.2464ZM49.0804 36.4373L50.0587 36.6444L50.2554 35.7154L49.3378 35.471L49.0804 36.4373ZM45.6313 52.7307L45.3206 53.6813L46.379 54.0271L46.6096 52.9378L45.6313 52.7307ZM42.6273 52.0667L42.4772 53.0554L42.4811 53.0559L42.6273 52.0667ZM33.9997 53.5723L34.7684 54.2119V54.2119L33.9997 53.5723ZM33.0093 132.034L33.0152 133.034L34.0152 133.028L34.0093 132.028L33.0093 132.034ZM45.9142 62.1383L44.9142 62.1442L45.011 78.5076L46.011 78.5017L47.011 78.4958L46.9142 62.1324L45.9142 62.1383ZM46.011 78.5017L46.0051 77.5017L1.09679 77.7674L1.1027 78.7674L1.10862 79.7674L46.0169 79.5017L46.011 78.5017ZM1.1027 78.7674L2.10269 78.7615L2.00587 62.3981L1.00589 62.404L0.00590878 62.4099L0.10272 78.7733L1.1027 78.7674ZM1.00589 62.404L1.01181 63.404L45.9201 63.1383L45.9142 62.1383L45.9083 61.1383L0.999975 61.404L1.00589 62.404ZM10.7824 132.166L11.7824 132.16L11.3484 58.7973L10.3484 58.8032L9.34841 58.8091L9.78244 132.171L10.7824 132.166ZM10.3484 58.8032L11.3484 58.7973C11.3172 53.5237 12.2848 49.2327 14.1852 45.8682L13.3145 45.3764L12.4437 44.8846C10.3255 48.6348 9.31578 53.2951 9.34841 58.8091L10.3484 58.8032ZM13.3145 45.3764L14.187 45.865C16.1001 42.4486 18.755 39.9098 22.165 38.2228L21.7215 37.3265L21.2781 36.4302C17.4968 38.3009 14.547 41.1286 12.442 44.8877L13.3145 45.3764ZM21.7215 37.3265L22.171 38.2198C25.6067 36.491 29.6115 35.5979 34.2114 35.5707L34.2054 34.5707L34.1995 33.5708C29.345 33.5995 25.0272 34.5436 21.272 36.4332L21.7215 37.3265ZM34.2054 34.5707L34.2114 35.5707C37.2502 35.5527 40.1016 35.7742 42.7677 36.232L42.9369 35.2464L43.1061 34.2608C40.3119 33.7811 37.3424 33.5522 34.1995 33.5708L34.2054 34.5707ZM42.9369 35.2464L42.7801 36.234C45.5332 36.6711 47.5393 37.0617 48.823 37.4036L49.0804 36.4373L49.3378 35.471C47.9505 35.1015 45.8609 34.6981 43.0937 34.2587L42.9369 35.2464ZM49.0804 36.4373L48.1021 36.2302L44.6529 52.5236L45.6313 52.7307L46.6096 52.9378L50.0587 36.6444L49.0804 36.4373ZM45.6313 52.7307L45.9419 51.7802C45.0524 51.4896 43.9925 51.2576 42.7735 51.0774L42.6273 52.0667L42.4811 53.0559C43.6278 53.2254 44.5705 53.4362 45.3206 53.6813L45.6313 52.7307ZM42.6273 52.0667L42.7774 51.078C41.5798 50.8962 40.4359 50.8069 39.3471 50.8133L39.353 51.8133L39.3589 52.8133C40.3307 52.8076 41.3696 52.8872 42.4772 53.0553L42.6273 52.0667ZM39.353 51.8133L39.3471 50.8133C36.6521 50.8293 34.4832 51.4276 33.231 52.9327L33.9997 53.5723L34.7684 54.2119C35.4418 53.4025 36.8419 52.8282 39.3589 52.8133L39.353 51.8133ZM33.9997 53.5723L33.231 52.9327C32.0739 54.3233 31.5604 56.1565 31.5731 58.314L32.5731 58.3081L33.5731 58.3022C33.5622 56.4598 33.9997 55.1358 34.7684 54.2119L33.9997 53.5723ZM32.5731 58.3081L31.5731 58.314L32.0093 132.04L33.0093 132.034L34.0093 132.028L33.5731 58.3022L32.5731 58.3081ZM33.0093 132.034L33.0034 131.034L10.7765 131.166L10.7824 132.166L10.7883 133.166L33.0152 133.034L33.0093 132.034Z" fill="#362D2D" fill-opacity="0.11" mask="url(#path-2-outside-1_37_2)"/>
<path d="M103.413 132.302C96.2308 132.302 90.049 130.847 84.8672 127.938C79.7157 124.999 75.746 120.847 72.9581 115.484C70.1702 110.09 68.7763 103.711 68.7763 96.3472C68.7763 89.1654 70.1702 82.8623 72.9581 77.4381C75.746 72.0139 79.6702 67.7866 84.7308 64.7563C89.8217 61.726 95.7914 60.2108 102.64 60.2108C107.246 60.2108 111.534 60.9532 115.504 62.4381C119.504 63.8926 122.988 66.0896 125.958 69.029C128.958 71.9684 131.291 75.6654 132.958 80.1199C134.625 84.5442 135.458 89.726 135.458 95.6654V100.984H76.5036V88.9835H117.231C117.231 86.1957 116.625 83.726 115.413 81.5745C114.201 79.4229 112.519 77.7411 110.367 76.529C108.246 75.2866 105.776 74.6654 102.958 74.6654C100.019 74.6654 97.4126 75.3472 95.1399 76.7108C92.8975 78.0442 91.1399 79.8472 89.8672 82.1199C88.5945 84.3623 87.9429 86.8623 87.9126 89.6199V101.029C87.9126 104.484 88.549 107.468 89.8217 109.984C91.1248 112.499 92.9581 114.438 95.3217 115.802C97.6854 117.165 100.488 117.847 103.731 117.847C105.882 117.847 107.852 117.544 109.64 116.938C111.428 116.332 112.958 115.423 114.231 114.211C115.504 112.999 116.473 111.514 117.14 109.756L135.049 110.938C134.14 115.241 132.276 118.999 129.458 122.211C126.67 125.393 123.064 127.877 118.64 129.665C114.246 131.423 109.17 132.302 103.413 132.302Z" fill="#FAF6E2"/>
<path d="M38.7659 119.17L52.5562 4.33337C52.9031 1.44456 55.6682 -0.513311 58.5083 0.118967C59.9145 0.432033 61.1127 1.34589 61.7866 2.61921L67.974 14.3109C69.5951 17.3741 70.3924 20.806 70.2877 24.2701L67.7902 106.904C67.7037 109.766 68.439 112.593 69.909 115.051C76.663 126.341 66.6324 140.233 53.7905 137.374L51.2559 136.809C43.1791 135.011 37.7793 127.385 38.7659 119.17Z" fill="#FCCE17"/>
<path d="M12.5831 73.0617C11.8928 73.0617 11.3004 72.9196 10.8061 72.6355C10.3146 72.3514 9.93679 71.9566 9.67259 71.4509C9.40838 70.9424 9.27628 70.3543 9.27628 69.6867C9.27628 69.0162 9.40838 68.4281 9.67259 67.9225C9.93963 67.4139 10.3189 67.0176 10.8104 66.7335C11.3047 66.4495 11.8942 66.3074 12.5788 66.3074C13.1839 66.3074 13.7109 66.4168 14.1598 66.6355C14.6115 66.8543 14.9638 67.1639 15.2166 67.5645C15.4723 67.9622 15.6072 68.4296 15.6214 68.9665H13.674C13.6342 68.6313 13.5206 68.3685 13.3331 68.1781C13.1484 67.9878 12.907 67.8926 12.6087 67.8926C12.3672 67.8926 12.1555 67.9608 11.9737 68.0972C11.7919 68.2307 11.6499 68.4296 11.5476 68.6938C11.4482 68.9551 11.3984 69.279 11.3984 69.6654C11.3984 70.0517 11.4482 70.3784 11.5476 70.6455C11.6499 70.9097 11.7919 71.11 11.9737 71.2463C12.1555 71.3799 12.3672 71.4466 12.6087 71.4466C12.8018 71.4466 12.9723 71.4054 13.12 71.323C13.2706 71.2406 13.3942 71.1199 13.4908 70.9608C13.5874 70.7989 13.6484 70.6029 13.674 70.3728H15.6214C15.6016 70.9125 15.4666 71.3841 15.2166 71.7875C14.9695 72.1909 14.6214 72.5049 14.1726 72.7293C13.7266 72.9509 13.1967 73.0617 12.5831 73.0617ZM18.533 73.0489C18.1154 73.0489 17.7447 72.9793 17.4208 72.8401C17.0998 72.698 16.8455 72.485 16.658 72.2009C16.4734 71.9139 16.381 71.5546 16.381 71.1228C16.381 70.7591 16.445 70.4523 16.5728 70.2023C16.7006 69.9523 16.8768 69.7492 17.1012 69.5929C17.3256 69.4367 17.5842 69.3188 17.8768 69.2392C18.1694 69.1568 18.4819 69.1014 18.8143 69.073C19.1864 69.0389 19.4862 69.0034 19.7134 68.9665C19.9407 68.9267 20.1055 68.8713 20.2077 68.8003C20.3129 68.7264 20.3654 68.6228 20.3654 68.4892V68.4679C20.3654 68.2492 20.2901 68.0801 20.1396 67.9608C19.989 67.8415 19.7859 67.7818 19.5302 67.7818C19.2546 67.7818 19.033 67.8415 18.8654 67.9608C18.6978 68.0801 18.5913 68.2449 18.5458 68.4551L16.6239 68.387C16.6808 67.9892 16.8271 67.6341 17.0629 67.3216C17.3015 67.0063 17.6282 66.7591 18.043 66.5801C18.4606 66.3983 18.962 66.3074 19.5472 66.3074C19.9648 66.3074 20.3498 66.3571 20.7021 66.4566C21.0543 66.5531 21.3612 66.6952 21.6225 66.8827C21.8839 67.0674 22.0856 67.2946 22.2276 67.5645C22.3725 67.8344 22.445 68.1426 22.445 68.4892V72.9381H20.4847V72.0262H20.4336C20.3171 72.2478 20.168 72.4353 19.9862 72.5887C19.8072 72.7421 19.5955 72.8571 19.3512 72.9338C19.1097 73.0105 18.837 73.0489 18.533 73.0489ZM19.1765 71.6853C19.4009 71.6853 19.6026 71.6398 19.7816 71.5489C19.9634 71.458 20.1083 71.333 20.2163 71.1739C20.3242 71.012 20.3782 70.8245 20.3782 70.6114V69.9892C20.3185 70.0205 20.2461 70.0489 20.1609 70.0745C20.0785 70.1 19.9876 70.1242 19.8881 70.1469C19.7887 70.1696 19.6864 70.1895 19.5813 70.2066C19.4762 70.2236 19.3754 70.2392 19.2788 70.2534C19.0827 70.2847 18.9151 70.333 18.7759 70.3983C18.6396 70.4637 18.5344 70.5489 18.4606 70.654C18.3896 70.7563 18.354 70.8784 18.354 71.0205C18.354 71.2364 18.4308 71.4012 18.5842 71.5148C18.7404 71.6284 18.9379 71.6853 19.1765 71.6853ZM29.4336 68.3912L27.5202 68.4424C27.5004 68.306 27.4464 68.1853 27.3583 68.0801C27.2702 67.9722 27.1552 67.8884 27.0131 67.8287C26.8739 67.7662 26.712 67.735 26.5273 67.735C26.2859 67.735 26.0799 67.7833 25.9094 67.8799C25.7418 67.9764 25.6594 68.1071 25.6623 68.2719C25.6594 68.3997 25.7106 68.5105 25.8157 68.6043C25.9237 68.698 26.1154 68.7733 26.391 68.8301L27.6523 69.0688C28.3058 69.1938 28.7915 69.4012 29.1097 69.6909C29.4308 69.9807 29.5927 70.3642 29.5955 70.8415C29.5927 71.2904 29.4592 71.681 29.195 72.0134C28.9336 72.3458 28.5756 72.6043 28.1211 72.7889C27.6665 72.9708 27.1467 73.0617 26.5614 73.0617C25.6268 73.0617 24.8896 72.8699 24.3498 72.4864C23.8129 72.1 23.506 71.583 23.4293 70.9353L25.4876 70.8841C25.533 71.1228 25.6509 71.3046 25.8413 71.4296C26.0316 71.5546 26.2745 71.6171 26.57 71.6171C26.837 71.6171 27.0543 71.5674 27.2219 71.4679C27.3896 71.3685 27.4748 71.2364 27.4776 71.0716C27.4748 70.9239 27.4094 70.806 27.2816 70.7179C27.1538 70.627 26.9535 70.556 26.6808 70.5049L25.5387 70.2875C24.8825 70.1682 24.3938 69.948 24.0728 69.627C23.7518 69.3031 23.5927 68.8912 23.5955 68.3912C23.5927 67.9537 23.7092 67.5801 23.945 67.2705C24.1808 66.958 24.516 66.7193 24.9506 66.5546C25.3853 66.3898 25.8981 66.3074 26.489 66.3074C27.3754 66.3074 28.0742 66.4935 28.5856 66.8656C29.0969 67.235 29.3796 67.7435 29.4336 68.3912ZM32.4666 73.0489C32.049 73.0489 31.6783 72.9793 31.3544 72.8401C31.0334 72.698 30.7791 72.485 30.5916 72.2009C30.407 71.9139 30.3146 71.5546 30.3146 71.1228C30.3146 70.7591 30.3786 70.4523 30.5064 70.2023C30.6342 69.9523 30.8104 69.7492 31.0348 69.5929C31.2592 69.4367 31.5178 69.3188 31.8104 69.2392C32.103 69.1568 32.4155 69.1014 32.7479 69.073C33.12 69.0389 33.4197 69.0034 33.647 68.9665C33.8743 68.9267 34.0391 68.8713 34.1413 68.8003C34.2464 68.7264 34.299 68.6228 34.299 68.4892V68.4679C34.299 68.2492 34.2237 68.0801 34.0732 67.9608C33.9226 67.8415 33.7195 67.7818 33.4638 67.7818C33.1882 67.7818 32.9666 67.8415 32.799 67.9608C32.6314 68.0801 32.5249 68.2449 32.4794 68.4551L30.5575 68.387C30.6143 67.9892 30.7607 67.6341 30.9964 67.3216C31.2351 67.0063 31.5618 66.7591 31.9766 66.5801C32.3942 66.3983 32.8956 66.3074 33.4808 66.3074C33.8984 66.3074 34.2834 66.3571 34.6357 66.4566C34.9879 66.5531 35.2947 66.6952 35.5561 66.8827C35.8175 67.0674 36.0192 67.2946 36.1612 67.5645C36.3061 67.8344 36.3786 68.1426 36.3786 68.4892V72.9381H34.4183V72.0262H34.3672C34.2507 72.2478 34.1016 72.4353 33.9197 72.5887C33.7408 72.7421 33.5291 72.8571 33.2848 72.9338C33.0433 73.0105 32.7706 73.0489 32.4666 73.0489ZM33.1101 71.6853C33.3345 71.6853 33.5362 71.6398 33.7152 71.5489C33.897 71.458 34.0419 71.333 34.1499 71.1739C34.2578 71.012 34.3118 70.8245 34.3118 70.6114V69.9892C34.2521 70.0205 34.1797 70.0489 34.0945 70.0745C34.0121 70.1 33.9212 70.1242 33.8217 70.1469C33.7223 70.1696 33.62 70.1895 33.5149 70.2066C33.4098 70.2236 33.3089 70.2392 33.2124 70.2534C33.0163 70.2847 32.8487 70.333 32.7095 70.3983C32.5732 70.4637 32.468 70.5489 32.3942 70.654C32.3232 70.7563 32.2876 70.8784 32.2876 71.0205C32.2876 71.2364 32.3643 71.4012 32.5178 71.5148C32.674 71.6284 32.8714 71.6853 33.1101 71.6853Z" fill="#DFD06D"/>
</svg>
